<svg width="22" height="22" viewBox="0 0 22 22" fill="none" xmlns="http://www.w3.org/2000/svg">
<path d="M13.8004 21.195V13.9667H11.5975C9.25618 13.9667 8.2932 15.2996 8.10439 15.8737V19.411C8.10439 20.0877 8.51349 21.9947 11.157 21.9947C13.0451 21.9947 13.8004 22.1177 13.8004 21.195Z" fill="url(#paint0_linear_5845_66171)"/>
<path d="M11.9437 13.9658C9.75339 13.9658 8.51348 15.1346 8.16731 15.719C8.16731 14.6855 8.96455 13.8325 9.36316 13.5351C10.58 12.4073 13.1332 10.0348 13.6116 9.56727C14.0899 9.09974 15.0907 8.81881 15.5312 8.73679H21.2587C22.014 8.73679 22.1714 9.13665 21.8252 10.7669C21.5442 12.0899 21.1014 12.7969 20.5349 13.2276C20.0818 13.572 19.4964 13.9658 18.1432 13.9658H11.9437Z" fill="url(#paint1_linear_5845_66171)"/>
<path d="M8.07367 0.861242L8.07367 8.02802L10.2766 8.02802C12.6179 8.02802 13.5809 6.69514 13.7697 6.12098L13.7697 2.58373C13.7697 1.90704 13.3606 -9.21217e-07 10.7171 -7.11494e-07C8.48216 -5.3418e-07 8.07367 0.0820222 8.07367 0.861242Z" fill="url(#paint2_linear_5845_66171)"/>
<path d="M9.93028 8.02821C12.1206 8.02821 13.3605 6.85938 13.7066 6.27497C13.7066 7.30846 12.9094 8.1615 12.5108 8.45883C11.294 9.58665 8.74072 11.9592 8.26238 12.4267C7.78404 12.8942 6.7833 13.1752 6.34272 13.2572L0.929433 13.2572C-0.0147219 13.2572 -0.0776168 12.5495 0.0487707 11.2271C0.222241 9.41211 0.467976 9.15279 0.992311 8.6739C1.62171 8.09907 2.85952 8.02821 3.13226 8.02821L9.93028 8.02821Z" fill="url(#paint3_linear_5845_66171)"/>
<defs>
<linearGradient id="paint0_linear_5845_66171" x1="10.997" y1="13.9667" x2="10.997" y2="21.9947" gradientUnits="userSpaceOnUse">
<stop stop-color="#1408B1"/>
<stop offset="1" stop-color="#4338CA"/>
</linearGradient>
<linearGradient id="paint1_linear_5845_66171" x1="9.58345" y1="13.5044" x2="21.4158" y2="13.2146" gradientUnits="userSpaceOnUse">
<stop stop-color="#978FFF"/>
<stop offset="1" stop-color="#4338CA"/>
</linearGradient>
<linearGradient id="paint2_linear_5845_66171" x1="10.8771" y1="8.02802" x2="10.8771" y2="-7.24188e-07" gradientUnits="userSpaceOnUse">
<stop stop-color="#1408B1"/>
<stop offset="1" stop-color="#4338CA"/>
</linearGradient>
<linearGradient id="paint3_linear_5845_66171" x1="12.2905" y1="8.48959" x2="0.458197" y2="8.77936" gradientUnits="userSpaceOnUse">
<stop stop-color="#978FFF"/>
<stop offset="1" stop-color="#4338CA"/>
</linearGradient>
</defs>
</svg>
